<svg xmlns="http://www.w3.org/2000/svg" version="1.1" xmlns:xlink="http://www.w3.org/1999/xlink" xmlns:svgjs="http://svgjs.dev/svgjs" width="1440" height="560" preserveAspectRatio="none" viewBox="0 0 1440 560"><g mask="url(&quot;#SvgjsMask1001&quot;)" fill="none"><rect width="1440" height="560" x="0" y="0" fill="rgba(0, 0, 0, 1)"></rect><path d="M466.32 618.46C632.6 589.92 712.84 182.41 979.1 179.71 1245.36 177.01 1358.24 329.35 1491.88 330.91" stroke="rgba(233, 236, 239, 1)" stroke-width="2"></path><path d="M394.84 593.04C593.84 556.8 689.69 60.41 1002.06 58.33 1314.43 56.25 1446.03 294.79 1609.28 299.13" stroke="rgba(233, 236, 239, 1)" stroke-width="2"></path><path d="M253.87 658.83C437.82 650.49 559.95 346.95 916.56 337.31 1273.17 327.67 1405.68 132.51 1579.25 130.11" stroke="rgba(233, 236, 239, 1)" stroke-width="2"></path><path d="M544.97 584.47C714.51 538.13 767.6 72.66 1021.13 67.21 1274.65 61.76 1371.07 232.77 1497.28 235.21" stroke="rgba(233, 236, 239, 1)" stroke-width="2"></path><path d="M448.56 652.84C581.75 628.02 638.32 296.74 853.26 292.39 1068.2 288.04 1055.61 362.39 1257.97 362.39 1460.32 362.39 1559.99 292.65 1662.67 292.39" stroke="rgba(233, 236, 239, 1)" stroke-width="2"></path></g><defs><mask id="SvgjsMask1001"><rect width="1440" height="560" fill="#ffffff"></rect></mask></defs></svg>